<?xml version="1.0" encoding="iso-8859-1"?>
<!-- Generator: Adobe Illustrator 19.0.0, SVG Export Plug-In . SVG Version: 6.00 Build 0)  -->
<svg version="1.1" id="Layer_1" xmlns="http://www.w3.org/2000/svg" xmlns:xlink="http://www.w3.org/1999/xlink" x="0px" y="0px"
	 viewBox="0 0 128 128" style="enable-background:new 0 0 128 128;" xml:space="preserve">
<g>
	<circle style="fill:#FCCC66;" cx="64" cy="64" r="64"/>
	<g>
		<path style="fill:#6A6D58;" d="M89.813,96.565c0,1.345-1.09,2.435-2.435,2.435H41.249c-1.345,0-2.435-1.09-2.435-2.435v-64.13
			c0-1.345,1.09-2.435,2.435-2.435h46.129c1.345,0,2.435,1.09,2.435,2.435V96.565z"/>
		<rect x="43.813" y="53" style="fill:#F9FAF5;" width="12" height="12"/>
		<rect x="57.813" y="53" style="fill:#F9FAF5;" width="13" height="12"/>
		<rect x="72.813" y="53" style="fill:#F9FAF5;" width="12" height="12"/>
		<rect x="43.813" y="67" style="fill:#F9FAF5;" width="12" height="13"/>
		<rect x="57.813" y="67" style="fill:#F9FAF5;" width="13" height="13"/>
		<rect x="72.813" y="67" style="fill:#F9FAF5;" width="12" height="13"/>
		<rect x="43.813" y="82" style="fill:#F9FAF5;" width="12" height="12"/>
		<rect x="57.813" y="82" style="fill:#F9FAF5;" width="13" height="12"/>
		<rect x="72.907" y="81.337" style="fill:#FF8E6E;" width="11.793" height="11.793"/>
		<path style="fill:#76A7F4;" d="M84.813,47.565c0,1.345-1.09,2.435-2.435,2.435H45.249c-1.345,0-2.435-1.09-2.435-2.435v-9.129
			c0-1.345,1.09-2.435,2.435-2.435h37.129c1.345,0,2.435,1.09,2.435,2.435V47.565z"/>
	</g>
</g>
<g>
</g>
<g>
</g>
<g>
</g>
<g>
</g>
<g>
</g>
<g>
</g>
<g>
</g>
<g>
</g>
<g>
</g>
<g>
</g>
<g>
</g>
<g>
</g>
<g>
</g>
<g>
</g>
<g>
</g>
</svg>
