<?xml version="1.0" encoding="iso-8859-1"?>
<!-- Generator: Adobe Illustrator 19.0.0, SVG Export Plug-In . SVG Version: 6.00 Build 0)  -->
<svg version="1.1" id="Layer_1" xmlns="http://www.w3.org/2000/svg" xmlns:xlink="http://www.w3.org/1999/xlink" x="0px" y="0px"
	 viewBox="0 0 128.5 128.5" style="enable-background:new 0 0 128.5 128.5;" xml:space="preserve">
<g>
	<g>
		<circle style="fill:#EFCB6C;" cx="64.25" cy="64.25" r="64.25"/>
	</g>
	<path style="fill:#DD744B;" d="M85,99.539c0,1.359-1.102,2.461-2.461,2.461H45.461C44.102,102,43,100.898,43,99.539V99.46
		c0-1.358,1.102-2.46,2.461-2.46H82.54c1.358,0,2.46,1.102,2.46,2.461V99.539z"/>
	<path style="fill:#E27664;" d="M95,95c0,2.209-1.791,4-4,4H37c-2.209,0-4-1.791-4-4l0,0c0-2.209,1.791-4,4-4h54
		C93.209,91,95,92.791,95,95L95,95z"/>
	<path style="fill:#EF836A;" d="M64,99H37.101C34.836,99,33,97.265,33,95l0,0c0-2.265,1.836-4,4.101-4H64"/>
	<g>
		<path style="opacity:0.5;fill:#EFEFEF;enable-background:new    ;" d="M59.815,23h-0.353C55.362,23,52,27.341,52,31.44v14.844
			c3.787,0,5.672-1.975,7-4.453V26.904C59,25.573,59.296,24.247,59.815,23z"/>
		<path style="opacity:0.5;fill:#EFEFEF;enable-background:new    ;" d="M84.6,23c-3.065,2.311-7.672,3.481-11.156,8.019
			C71.22,33.916,70.102,38.23,68,41.608v4.677c7,0,7.39-7.868,10.491-11.907C82.762,28.814,88.982,30,88.982,23H84.6z"/>
		<path style="opacity:0.6;fill:#FFFFFF;enable-background:new    ;" d="M69.411,16c-4.149,0-7.979,3.111-9.597,7
			C59.296,24.247,59,25.573,59,26.904v14.927v4.915c4.635,0,7.184-2.22,9-5.138c2.102-3.378,3.22-7.692,5.443-10.589
			C76.927,26.481,81.535,25.311,84.6,23c1.957-1.476,3.287-3.416,3.287-7H69.411z"/>
	</g>
	<path style="fill:#E5E5E5;" d="M75,91H54.081C46.465,91,40,84.648,40,77.031V48"/>
	<path style="fill:#E5E5E5;" d="M45.577,83.556c-0.64,0-1.28-0.244-1.768-0.732c-4.365-4.364-11.216-10.966-12.728-12.008
		C30.404,70.349,30,69.58,30,68.757V57.5c0-1.381,1.119-2.5,2.5-2.5H49c1.381,0,2.5,1.119,2.5,2.5S50.381,60,49,60H35v7.547
		c3.684,3.099,12.249,11.645,12.344,11.741c0.977,0.976,0.977,2.559,0,3.535C46.856,83.312,46.216,83.556,45.577,83.556z"/>
	<path style="fill:#CE6B4D;" d="M89,77.031C89,84.648,82.383,91,74.767,91H54.081C46.465,91,40,84.648,40,77.031V48c21,0,36,0,49,0
		V77.031z"/>
	<path style="fill:#DD744B;" d="M64,91h-9.919C46.465,91,40,84.648,40,77.031V48c4,0,24,0,24,0"/>
	<path style="fill:#DD744B;" d="M45.577,83.556c-0.64,0-1.28-0.244-1.768-0.732c-4.365-4.364-11.216-10.966-12.728-12.008
		C30.404,70.349,30,69.58,30,68.757V57.5c0-1.381,1.119-2.5,2.5-2.5H49c1.381,0,2.5,1.119,2.5,2.5S50.381,60,49,60H35v7.547
		c3.684,3.099,12.249,11.645,12.344,11.741c0.977,0.976,0.977,2.559,0,3.535C46.856,83.312,46.216,83.556,45.577,83.556z"/>
	<g>
		
			<ellipse transform="matrix(0.5883 -0.8086 0.8086 0.5883 -28.1929 79.6779)" style="fill:#7A5222;" cx="64.156" cy="67.527" rx="10.341" ry="7.446"/>
		<path style="fill:#895F27;" d="M57.835,75.716c-3.255-2.513-3.063-8.215,0.428-12.736c3.491-4.52,8.959-6.147,12.214-3.634"/>
	</g>
</g>
<g>
</g>
<g>
</g>
<g>
</g>
<g>
</g>
<g>
</g>
<g>
</g>
<g>
</g>
<g>
</g>
<g>
</g>
<g>
</g>
<g>
</g>
<g>
</g>
<g>
</g>
<g>
</g>
<g>
</g>
</svg>
