<?xml version="1.0" encoding="iso-8859-1"?>
<!-- Generator: Adobe Illustrator 19.0.0, SVG Export Plug-In . SVG Version: 6.00 Build 0)  -->
<svg version="1.1" id="Layer_1" xmlns="http://www.w3.org/2000/svg" xmlns:xlink="http://www.w3.org/1999/xlink" x="0px" y="0px"
	 viewBox="0 0 128.524 128.524" style="enable-background:new 0 0 128.524 128.524;" xml:space="preserve">
<g id="_x31_6">
	<g>
		<circle style="fill:#EFCB6C;" cx="64.25" cy="64.262" r="64.25"/>
	</g>
	<path style="fill:#F2BF96;" d="M59.354,82.019L59.354,82.019c-2.962-0.378-5.17-3.131-4.699-6.073l4.502-28.077
		c0.471-2.942,3.109-5.077,6.072-4.699l0,0c2.962,0.378,5.068,3.109,4.697,6.072L65.425,77.32
		C64.954,80.271,62.317,82.397,59.354,82.019z"/>
	<path style="fill:#F2BF96;" d="M71.083,79.197L71.083,79.197c-2.985,0.099-5.602-2.268-5.605-5.247l-0.023-28.436
		c-0.003-2.979,2.263-5.507,5.247-5.605l0,0c2.985-0.098,5.499,2.262,5.604,5.248l0.024,28.437
		C76.333,76.58,74.068,79.099,71.083,79.197z"/>
	<polygon style="fill:#F2C09E;" points="105.757,44.207 73.458,30.309 53.236,49.988 52.811,68.273 97.821,61.176 	"/>
	<path style="fill:#F2C09E;" d="M83.277,75.38L83.277,75.38c-2.846,0.905-6.008-0.662-6.819-3.528L68.715,44.49
		c-0.812-2.866,0.682-5.914,3.529-6.819l0,0c2.846-0.905,5.907,0.684,6.818,3.529l7.744,27.362
		C87.62,71.436,86.124,74.475,83.277,75.38z"/>
	<path style="fill:#FFDCC5;" d="M104.474,37.814c13.057,6.323,17.984,11.99,22.619,13.012c1.306,5.353,2.074,14.186,0.718,22.874
		c-4.436-3.25-18.484-2.806-22.541-1.972c-11.157,2.295-19.984-4.932-20.501-9.176C84.252,58.308,95.078,44.112,104.474,37.814z"/>
	<path style="fill:#FFDCC5;" d="M111.405,45.699L111.405,45.699c-0.686,2.907-3.835,5.301-6.53,4.037L71.977,34.322
		c-2.695-1.263-4.723-3.624-4.038-6.531l0,0c0.686-2.907,3.622-4.716,6.53-4.036l32.898,15.415
		C110.073,40.437,112.091,42.793,111.405,45.699z"/>
	<path style="fill:#FFDCC5;" d="M50.544,47.609L50.544,47.609c-1.823-2.366-1.329-5.744,0.987-7.614l18.011-14.939
		c2.291-1.901,5.792-1.379,7.614,0.987l0,0c1.822,2.366,1.375,5.785-0.988,7.614l-18.01,14.94
		C55.859,50.503,52.367,49.976,50.544,47.609z"/>
	<path style="fill:#FFDCC5;" d="M45.496,77.868L45.496,77.868c-2.905-0.694-4.804-3.668-4.019-6.542l7.492-27.432
		c0.785-2.874,3.638-4.713,6.542-4.019l0,0c2.905,0.694,4.706,3.635,4.018,6.542L52.037,73.85
		C51.25,76.732,48.401,78.562,45.496,77.868z"/>
	<path style="fill:#FFDCC5;" d="M68.495,40.022c4.901,1.468,24.806,7.967,15.823,17.277c-8.984,9.31,23.184,0.043,23.184,0.043
		l-8.803-19.293C98.699,38.049,71.235,23.683,68.495,40.022z"/>
	<g>
		<rect x="26" y="59.012" style="fill:#B1C95D;" width="63" height="41"/>
		<rect x="31" y="65.012" style="fill:#E7FFE1;" width="32" height="10"/>
		<circle style="fill:#E7FFE1;" cx="81.754" cy="70.055" r="5.017"/>
		<circle style="fill:#E7FFE1;" cx="76.498" cy="70.055" r="5.017"/>
		<rect x="26" y="88.012" style="fill:#6D8467;" width="63" height="7"/>
	</g>
	<path style="fill:#FFDCC5;" d="M93.796,60.755L93.796,60.755c1.041,3.349-0.789,7.179-4.194,7.98l-30.771,7.238
		c-3.405,0.801-6.939-0.846-7.98-4.195l0,0c-1.041-3.348,0.848-6.93,4.195-7.979l30.771-7.237
		C89.232,55.757,92.755,57.406,93.796,60.755z"/>
	<path style="fill:#FFDCC5;" d="M112.392,55.569L112.392,55.569c1.041,3.349-0.789,7.179-4.194,7.98l-30.771,7.238
		c-3.405,0.801-6.939-0.846-7.98-4.195l0,0c-1.041-3.349,0.848-6.93,4.195-7.979l30.771-7.237
		C107.828,50.571,111.352,52.22,112.392,55.569z"/>
</g>
<g>
</g>
<g>
</g>
<g>
</g>
<g>
</g>
<g>
</g>
<g>
</g>
<g>
</g>
<g>
</g>
<g>
</g>
<g>
</g>
<g>
</g>
<g>
</g>
<g>
</g>
<g>
</g>
<g>
</g>
</svg>
