<?xml version="1.0" encoding="iso-8859-1"?>
<!-- Generator: Adobe Illustrator 19.0.0, SVG Export Plug-In . SVG Version: 6.00 Build 0)  -->
<svg version="1.1" id="Layer_1" xmlns="http://www.w3.org/2000/svg" xmlns:xlink="http://www.w3.org/1999/xlink" x="0px" y="0px"
	 viewBox="0 0 128 128" style="enable-background:new 0 0 128 128;" xml:space="preserve">
<g>
	<circle style="fill:#FCCC66;" cx="64" cy="64" r="64"/>
	<g>
		<rect x="61.737" y="55" style="fill:#4E4E51;" width="5" height="51"/>
		<polygon style="fill:#4E4E51;" points="91.737,62 91.737,73 79.737,73 79.737,77 91.5,77 94.737,77 94.737,73 94.737,62 		"/>
		<polygon style="fill:#4E4E51;" points="36.737,73 36.737,62 33.737,62 33.737,73 33.737,77 36.5,77 48.737,77 48.737,73 		"/>
		<rect x="40.737" y="71" style="fill:#4E4E51;" width="47" height="9"/>
		<polygon style="fill:#5C5D61;" points="83.33,61 46.288,61 41.283,20 88.336,20 		"/>
		<circle style="fill:#F3F4F8;" cx="64.809" cy="41.135" r="3.821"/>
		<path style="fill:#5C5D61;" d="M38.737,65.604c0,1.876-1.521,3.396-3.396,3.396h-0.208c-1.876,0-3.396-1.521-3.396-3.396v-3.208
			c0-1.876,1.521-3.396,3.396-3.396h0.208c1.876,0,3.396,1.521,3.396,3.396V65.604z"/>
		<path style="fill:#5C5D61;" d="M96.737,65.604c0,1.876-1.521,3.396-3.396,3.396h-0.208c-1.876,0-3.396-1.521-3.396-3.396v-3.208
			c0-1.876,1.521-3.396,3.396-3.396h0.208c1.876,0,3.396,1.521,3.396,3.396V65.604z"/>
		<path style="fill:#4E4E51;" d="M46.856,100h-4c0-3,2.72-6,5.821-6h31.415c3.155,0,5.82,3,5.82,6h-4c0-1-0.868-2-1.82-2H48.677
			C47.775,98,46.856,99,46.856,100z"/>
		<path style="fill:#F3F4F8;" d="M46.737,103.5c0,1.381-1.119,2.5-2.5,2.5l0,0c-1.381,0-2.5-1.119-2.5-2.5v-2
			c0-1.381,1.119-2.5,2.5-2.5l0,0c1.381,0,2.5,1.119,2.5,2.5V103.5z"/>
		<path style="fill:#F3F4F8;" d="M66.737,107.5c0,1.381-1.119,2.5-2.5,2.5l0,0c-1.381,0-2.5-1.119-2.5-2.5v-2
			c0-1.381,1.119-2.5,2.5-2.5l0,0c1.381,0,2.5,1.119,2.5,2.5V107.5z"/>
		<path style="fill:#F3F4F8;" d="M85.737,103.5c0,1.381-1.119,2.5-2.5,2.5l0,0c-1.381,0-2.5-1.119-2.5-2.5v-2
			c0-1.381,1.119-2.5,2.5-2.5l0,0c1.381,0,2.5,1.119,2.5,2.5V103.5z"/>
	</g>
</g>
<g>
</g>
<g>
</g>
<g>
</g>
<g>
</g>
<g>
</g>
<g>
</g>
<g>
</g>
<g>
</g>
<g>
</g>
<g>
</g>
<g>
</g>
<g>
</g>
<g>
</g>
<g>
</g>
<g>
</g>
</svg>
