<?xml version="1.0" encoding="iso-8859-1"?>
<!-- Generator: Adobe Illustrator 19.0.0, SVG Export Plug-In . SVG Version: 6.00 Build 0)  -->
<svg version="1.1" id="Layer_1" xmlns="http://www.w3.org/2000/svg" xmlns:xlink="http://www.w3.org/1999/xlink" x="0px" y="0px"
	 viewBox="0 0 128 128" style="enable-background:new 0 0 128 128;" xml:space="preserve">
<g>
	<circle style="fill:#2ECBD0;" cx="64" cy="64" r="64"/>
	<g>
		<g>
			<rect x="52.528" y="26.875" style="fill:#D9D9D9;" width="43" height="62"/>
			<rect x="55.612" y="35" style="fill:#FFFFFF;" width="35" height="2"/>
			<rect x="55.612" y="43" style="fill:#FFFFFF;" width="35" height="2"/>
			<rect x="55.612" y="51" style="fill:#FFFFFF;" width="35" height="2"/>
			<rect x="55.612" y="59" style="fill:#FFFFFF;" width="35" height="2"/>
			<rect x="55.612" y="67" style="fill:#FFFFFF;" width="35" height="2"/>
			<rect x="55.612" y="75" style="fill:#FFFFFF;" width="35" height="2"/>
		</g>
		<polygon style="fill:#F7F7F7;" points="75.873,49.349 66.011,38.665 32.472,38.665 32.472,101.125 75.873,101.125 		"/>
		<polygon style="fill:#FFFFFF;" points="75.873,49 64.612,38.665 64.612,49 		"/>
		<rect x="35.612" y="53" style="fill:#D8D9DB;" width="35" height="2"/>
		<rect x="35.612" y="61" style="fill:#D8D9DB;" width="35" height="2"/>
		<rect x="35.612" y="69" style="fill:#D8D9DB;" width="35" height="2"/>
		<rect x="35.612" y="77" style="fill:#D8D9DB;" width="35" height="2"/>
		<rect x="35.612" y="85" style="fill:#D8D9DB;" width="35" height="2"/>
		<rect x="35.612" y="93" style="fill:#D8D9DB;" width="35" height="2"/>
	</g>
</g>
<g>
</g>
<g>
</g>
<g>
</g>
<g>
</g>
<g>
</g>
<g>
</g>
<g>
</g>
<g>
</g>
<g>
</g>
<g>
</g>
<g>
</g>
<g>
</g>
<g>
</g>
<g>
</g>
<g>
</g>
</svg>
