<?xml version="1.0" encoding="iso-8859-1"?>
<!-- Generator: Adobe Illustrator 19.0.0, SVG Export Plug-In . SVG Version: 6.00 Build 0)  -->
<svg version="1.1" id="Layer_1" xmlns="http://www.w3.org/2000/svg" xmlns:xlink="http://www.w3.org/1999/xlink" x="0px" y="0px"
	 viewBox="0 0 128.5 128.5" style="enable-background:new 0 0 128.5 128.5;" xml:space="preserve">
<g id="_x35__2_">
	<g>
		<circle style="fill:#B1C95D;" cx="64.25" cy="64.25" r="64.25"/>
	</g>
	<g>
		<rect x="26" y="26.667" style="fill:#EFCB6C;" width="20" height="77"/>
		<circle style="fill:#FFFFFF;" cx="35.97" cy="37.612" r="3.703"/>
		<path style="fill:#CAA347;" d="M35,97.958c0,0.944-0.765,1.709-1.709,1.709h-0.582c-0.944,0-1.709-0.765-1.709-1.709V68.376
			c0-0.944,0.765-1.709,1.709-1.709h0.582c0.944,0,1.709,0.765,1.709,1.709V97.958z"/>
		<path style="fill:#CAA347;" d="M42,96.958c0,0.944-0.765,1.709-1.709,1.709h-0.582c-0.944,0-1.709-0.765-1.709-1.709V79.376
			c0-0.944,0.765-1.709,1.709-1.709h0.582c0.944,0,1.709,0.765,1.709,1.709V96.958z"/>
		<path style="fill:#CAA347;" d="M42,74.958c0,0.944-0.765,1.709-1.709,1.709h-0.582c-0.944,0-1.709-0.765-1.709-1.709v-6.582
			c0-0.944,0.765-1.709,1.709-1.709h0.582c0.944,0,1.709,0.765,1.709,1.709V74.958z"/>
	</g>
	<g>
		<rect x="46" y="26.667" style="fill:#B9E3ED;" width="20" height="77"/>
		<circle style="fill:#FFFFFF;" cx="55.909" cy="37.612" r="3.703"/>
		<path style="fill:#72A8B0;" d="M55,97.958c0,0.944-0.765,1.709-1.709,1.709h-0.582c-0.944,0-1.709-0.765-1.709-1.709V68.376
			c0-0.944,0.765-1.709,1.709-1.709h0.582c0.944,0,1.709,0.765,1.709,1.709V97.958z"/>
		<path style="fill:#72A8B0;" d="M62,96.958c0,0.944-0.765,1.709-1.709,1.709h-0.582c-0.944,0-1.709-0.765-1.709-1.709V79.376
			c0-0.944,0.765-1.709,1.709-1.709h0.582c0.944,0,1.709,0.765,1.709,1.709V96.958z"/>
		<path style="fill:#72A8B0;" d="M62,74.958c0,0.944-0.765,1.709-1.709,1.709h-0.582c-0.944,0-1.709-0.765-1.709-1.709v-6.582
			c0-0.944,0.765-1.709,1.709-1.709h0.582c0.944,0,1.709,0.765,1.709,1.709V74.958z"/>
	</g>
	<g>
		
			<rect x="79.554" y="25.936" transform="matrix(-0.9234 0.3839 -0.3839 -0.9234 196.7981 88.9343)" style="fill:#FFBAB0;" width="19.94" height="76.342"/>
		<circle style="fill:#FFFFFF;" cx="78.914" cy="38.59" r="3.703"/>
		<path style="fill:#B57770;" d="M100.674,94.634c0.362,0.872-0.05,1.872-0.922,2.234l0,0c-0.872,0.362-1.872-0.05-2.234-0.922
			L86.363,69.118c-0.362-0.872,0.05-1.872,0.922-2.234l0,0c0.871-0.362,1.872,0.05,2.234,0.922L100.674,94.634z"/>
		<path style="fill:#B57770;" d="M106.986,92.009c0.362,0.871-0.05,1.872-0.922,2.234l0,0c-0.872,0.362-1.872-0.05-2.234-0.922
			l-6.78-16.307c-0.362-0.872,0.05-1.872,0.922-2.234l0,0c0.872-0.362,1.872,0.05,2.234,0.922L106.986,92.009z"/>
		<path style="fill:#B57770;" d="M98.237,70.968c0.362,0.872-0.05,1.872-0.922,2.234l0,0c-0.872,0.362-1.872-0.05-2.234-0.922
			l-2.406-5.786c-0.362-0.871,0.05-1.872,0.922-2.234l0,0c0.871-0.362,1.872,0.05,2.234,0.922L98.237,70.968z"/>
	</g>
</g>
<g>
</g>
<g>
</g>
<g>
</g>
<g>
</g>
<g>
</g>
<g>
</g>
<g>
</g>
<g>
</g>
<g>
</g>
<g>
</g>
<g>
</g>
<g>
</g>
<g>
</g>
<g>
</g>
<g>
</g>
</svg>
