<?xml version="1.0" encoding="iso-8859-1"?>
<!-- Generator: Adobe Illustrator 19.0.0, SVG Export Plug-In . SVG Version: 6.00 Build 0)  -->
<svg version="1.1" id="Layer_1" xmlns="http://www.w3.org/2000/svg" xmlns:xlink="http://www.w3.org/1999/xlink" x="0px" y="0px"
	 viewBox="0 0 128.5 128.5" style="enable-background:new 0 0 128.5 128.5;" xml:space="preserve">
<g id="_x31_2">
	<g>
		<circle style="fill:#B1C95D;" cx="64.25" cy="64.25" r="64.25"/>
	</g>
	<g>
		<path style="fill:#EFB67F;" d="M40,73v50.75c4.441,1.812,9.127,3.145,14,3.926V63L40,73z"/>
		<path style="fill:#EFCB6C;" d="M68,53H54v10v64.677c3.339,0.535,6.76,0.823,10.25,0.823c1.26,0,2.508-0.046,3.75-0.117V60V53z"/>
		<path style="fill:#EFB67F;" d="M82,72L68,60v68.383c4.831-0.278,9.513-1.098,14-2.386V75V72z"/>
		<path style="fill:#EFCB6C;" d="M82,75v50.996c4.937-1.417,9.628-3.407,14-5.898V61L82,75z"/>
		<path style="fill:#EFB67F;" d="M96,50v11v59.099c5.154-2.936,9.865-6.556,14-10.751V34L96,50z"/>
		<path style="fill:#EFCB6C;" d="M26,66v49.872c4.287,3.182,8.987,5.833,14,7.878V73L26,66z"/>
		<path style="fill:#EFB67F;" d="M26,65l-14,2v6v28.617c3.902,5.446,8.623,10.264,14,14.255V66V65z"/>
		<path style="fill:#EFCB6C;" d="M12,73l-9.241,9.901C4.814,89.684,7.966,95.987,12,101.617V73z"/>
	</g>
	<path style="fill:#EF8D6F;" d="M4.999,84c-0.95,0-1.902-0.336-2.666-1.02c-1.647-1.473-1.787-4.001-0.314-5.647l17-19
		c1.436-1.606,3.887-1.785,5.541-0.406l14.964,12.47L60.291,46.07c0.802-0.939,1.975-1.46,3.228-1.399
		c1.234,0.058,2.373,0.683,3.084,1.692l16.775,23.809l15.707-32.098l-4.739,1.692c-2.085,0.746-4.369-0.341-5.112-2.421
		c-0.743-2.081,0.341-4.37,2.421-5.112l14-5c1.534-0.548,3.244-0.111,4.328,1.101c1.084,1.214,1.325,2.963,0.61,4.424l-23,47
		c-0.621,1.271-1.866,2.117-3.275,2.229c-1.408,0.119-2.773-0.528-3.587-1.684l-17.7-25.121L43.042,78.597
		c-1.422,1.667-3.921,1.877-5.603,0.476L22.406,66.545L7.98,82.667C7.191,83.55,6.097,84,4.999,84z"/>
	<path style="fill:#EF8D6F;" d="M110.996,50.001c-1.868,0-3.538-1.315-3.918-3.217l-3-15c-0.434-2.166,0.971-4.274,3.138-4.706
		c2.171-0.438,4.273,0.972,4.706,3.138l3,15c0.434,2.166-0.971,4.273-3.138,4.706C111.519,49.976,111.256,50.001,110.996,50.001z"/>
</g>
<g>
</g>
<g>
</g>
<g>
</g>
<g>
</g>
<g>
</g>
<g>
</g>
<g>
</g>
<g>
</g>
<g>
</g>
<g>
</g>
<g>
</g>
<g>
</g>
<g>
</g>
<g>
</g>
<g>
</g>
</svg>
