<?xml version="1.0" encoding="iso-8859-1"?>
<!-- Generator: Adobe Illustrator 19.0.0, SVG Export Plug-In . SVG Version: 6.00 Build 0)  -->
<svg version="1.1" id="Layer_1" xmlns="http://www.w3.org/2000/svg" xmlns:xlink="http://www.w3.org/1999/xlink" x="0px" y="0px"
	 viewBox="0 0 128.5 128.5" style="enable-background:new 0 0 128.5 128.5;" xml:space="preserve">
<g>
	<g>
		<circle style="fill:#78CACE;" cx="64.25" cy="64.25" r="64.25"/>
	</g>
	<path style="fill:#D8D8D8;" d="M103.454,73.267c-3.893,0-8.387-1.787-12.661-6.06l-42-42c-3.447-3.447-7.175-5.364-10.782-5.544
		c-3.084-0.151-5.991,0.975-8.194,3.177c-4.257,4.257-5.392,12.171,0.89,18.453l12,12l-1.414,1.414l-12-12
		c-7.2-7.2-5.833-16.338-0.89-21.281c2.608-2.607,6.051-3.944,9.708-3.76c4.11,0.205,8.292,2.324,12.096,6.127l42,42
		c3.202,3.202,6.699,5.08,10.114,5.431c2.948,0.302,5.602-0.561,7.472-2.431c3.512-3.513,3.915-10.67-3.5-18.086l-22-22
		c-4.579-4.578-6.24-10.291-4.56-15.673c1.474-4.718,5.339-8.186,10.087-9.05l0.358,1.968c-4.015,0.73-7.286,3.673-8.537,7.678
		c-1.452,4.648,0.03,9.628,4.064,13.663l22,22c3.745,3.745,5.972,7.806,6.442,11.745c0.428,3.588-0.617,6.844-2.942,9.169
		C109.286,72.128,106.562,73.267,103.454,73.267z"/>
	<path style="fill:#EAEAEA;" d="M83.567,66.368c8.201,8.201,8.201,21.497,0,29.699l0,0c-8.201,8.201-21.498,8.201-29.699,0
		L40.433,82.632c-8.201-8.201-8.201-21.497,0-29.698l0,0c8.201-8.201,21.497-8.201,29.698,0L83.567,66.368z"/>
	<path style="fill:#F7F7F7;" d="M83.744,95.889L83.744,95.889c-8.202,8.202-21.675,8.378-29.877,0.176L40.434,82.633
		c-8.202-8.202-8.114-21.587,0.088-29.789l0,0"/>
	<path style="fill:#D8D8D8;" d="M43.262,84.046l-2.12-2.12c-8.202-8.202-8.556-21.144-0.355-29.346l0,0
		c8.202-8.202,21.145-7.847,29.346,0.355l2.12,2.12"/>
	<path style="fill:#EAEAEA;" d="M42.555,84.753l-2.12-2.12c-8.202-8.202-8.026-21.676,0.176-29.877l0,0
		c7.015,7.015,8.778,9.103,16.979,17.305"/>
	<g>
		<path style="fill:#EAEAEA;" d="M55.648,62.491c1.36,1.36,1.36,3.565,0,4.925l-0.025,0.024c-1.36,1.36-3.565,1.36-4.925,0
			l-6.388-6.389c-1.36-1.36-1.36-3.565,0-4.925l0.024-0.024c1.36-1.36,3.565-1.36,4.925,0L55.648,62.491z"/>
		<path style="fill:#FFFFFF;" d="M55.706,67.511L55.706,67.511c-1.36,1.36-3.571,1.366-4.931,0.006l-6.269-6.268
			c-1.36-1.36-1.357-3.568,0.003-4.928l0,0"/>
	</g>
</g>
<g>
</g>
<g>
</g>
<g>
</g>
<g>
</g>
<g>
</g>
<g>
</g>
<g>
</g>
<g>
</g>
<g>
</g>
<g>
</g>
<g>
</g>
<g>
</g>
<g>
</g>
<g>
</g>
<g>
</g>
</svg>
