<?xml version="1.0" encoding="iso-8859-1"?>
<!-- Generator: Adobe Illustrator 19.0.0, SVG Export Plug-In . SVG Version: 6.00 Build 0)  -->
<svg version="1.1" id="Layer_1" xmlns="http://www.w3.org/2000/svg" xmlns:xlink="http://www.w3.org/1999/xlink" x="0px" y="0px"
	 viewBox="0 0 128 128" style="enable-background:new 0 0 128 128;" xml:space="preserve">
<g>
	<circle style="fill:#A8C954;" cx="64" cy="64" r="64"/>
	<g>
		<rect x="32.973" y="43" style="fill:#575947;" width="18" height="55"/>
		<rect x="77.973" y="43" style="fill:#575947;" width="18" height="55"/>
		<rect x="47.973" y="36" style="fill:#6A6D58;" width="33" height="62"/>
		<rect x="52.973" y="30" style="fill:#6A6D58;" width="23" height="9"/>
		<rect x="47.973" y="40" style="fill:#A4B09F;" width="33" height="4"/>
		<rect x="47.973" y="52" style="fill:#A4B09F;" width="33" height="4"/>
		<rect x="47.973" y="65" style="fill:#A4B09F;" width="33" height="4"/>
		<rect x="47.973" y="77" style="fill:#A4B09F;" width="33" height="4"/>
		<rect x="47.973" y="89" style="fill:#A4B09F;" width="33" height="4"/>
		<polygon style="fill:#6A6D58;" points="59.167,30 72.833,30 66.402,17.137 		"/>
		<rect x="35.973" y="46" style="fill:#6A6D58;" width="3" height="52"/>
		<rect x="42.973" y="46" style="fill:#6A6D58;" width="3" height="52"/>
		<rect x="82.973" y="46" style="fill:#6A6D58;" width="11" height="11"/>
		<rect x="82.973" y="60" style="fill:#6A6D58;" width="11" height="11"/>
		<rect x="82.973" y="75" style="fill:#6A6D58;" width="11" height="11"/>
		<rect x="84.973" y="89" style="fill:#6A6D58;" width="7" height="9"/>
	</g>
</g>
<g>
</g>
<g>
</g>
<g>
</g>
<g>
</g>
<g>
</g>
<g>
</g>
<g>
</g>
<g>
</g>
<g>
</g>
<g>
</g>
<g>
</g>
<g>
</g>
<g>
</g>
<g>
</g>
<g>
</g>
</svg>
