<?xml version="1.0" encoding="iso-8859-1"?>
<!-- Generator: Adobe Illustrator 19.0.0, SVG Export Plug-In . SVG Version: 6.00 Build 0)  -->
<svg version="1.1" id="Layer_1" xmlns="http://www.w3.org/2000/svg" xmlns:xlink="http://www.w3.org/1999/xlink" x="0px" y="0px"
	 viewBox="0 0 128 128" style="enable-background:new 0 0 128 128;" xml:space="preserve">
<g>
	<circle style="fill:#FCCC66;" cx="64" cy="64" r="64"/>
	<g>
		<polygon style="fill:#24AD61;" points="42.75,65.5 12.25,96 115.75,96 86.25,66.5 		"/>
		<path style="fill:#00C0C2;" d="M40.078,68c0,0,12.047,8,12.047,12s-17,5-19,6s-12,2-11,0S40.078,68,40.078,68z"/>
		<path style="fill:#00C0C2;" d="M89.125,69c0,0-26,6-25,12s4,5,12,2s5,1,7,4s8,2,12,2s18,4,18,4L89.125,69z"/>
		<g>
			<path style="fill:#F5795D;" d="M88.555,38.555C88.555,52.116,64,88,64,88S39.445,52.116,39.445,38.555S50.439,14,64,14
				S88.555,24.993,88.555,38.555z"/>
			<circle style="fill:#F3F4F8;" cx="64.336" cy="38.218" r="16.145"/>
			<g>
				<g>
					<path style="fill:#FCCC66;" d="M65.018,48.533c-4.082,0-6.542-2.342-6.809-2.609c-0.788-0.788-0.788-2.066,0-2.854
						c0.788-0.788,2.065-0.788,2.854,0c0.046,0.043,1.523,1.427,3.955,1.427c1.761,0,2.691-0.698,2.691-2.018
						c0-1.163-1.041-1.75-3.973-2.822c-2.582-0.944-6.118-2.237-6.118-5.924c0-3.621,2.703-6.055,6.727-6.055
						c3.209,0,5.57,1.512,5.829,1.684c0.928,0.618,1.178,1.871,0.56,2.799c-0.616,0.924-1.861,1.177-2.788,0.567
						c-0.05-0.033-1.615-1.014-3.6-1.014c-1.786,0-2.691,0.679-2.691,2.018c0,0.805,1.373,1.367,3.467,2.132
						c2.795,1.022,6.624,2.421,6.624,6.613C71.746,45.492,69.666,48.533,65.018,48.533z"/>
				</g>
			</g>
			<g>
				<g>
					<path style="fill:#FCCC66;" d="M64.346,52.346C63.603,52.346,63,51.743,63,51V25.436c0-0.743,0.602-1.345,1.346-1.345
						c0.743,0,1.345,0.602,1.345,1.345V51C65.691,51.743,65.089,52.346,64.346,52.346z"/>
				</g>
			</g>
		</g>
	</g>
</g>
<g>
</g>
<g>
</g>
<g>
</g>
<g>
</g>
<g>
</g>
<g>
</g>
<g>
</g>
<g>
</g>
<g>
</g>
<g>
</g>
<g>
</g>
<g>
</g>
<g>
</g>
<g>
</g>
<g>
</g>
</svg>
