<?xml version="1.0" encoding="iso-8859-1"?>
<!-- Generator: Adobe Illustrator 19.0.0, SVG Export Plug-In . SVG Version: 6.00 Build 0)  -->
<svg version="1.1" id="Layer_1" xmlns="http://www.w3.org/2000/svg" xmlns:xlink="http://www.w3.org/1999/xlink" x="0px" y="0px"
	 viewBox="0 0 128 128" style="enable-background:new 0 0 128 128;" xml:space="preserve">
<g>
	<circle style="fill:#1DBFC1;" cx="64" cy="64" r="64"/>
	<g>
		<rect x="40.413" y="24" style="fill:#4F4955;" width="47.935" height="31.196"/>
		<path style="fill:#4F4955;" d="M96.717,78.097c0,2.06-1.363,3.729-3.044,3.729H34.326c-1.681,0-3.043-1.67-3.043-3.729V52.925
			c0-2.06,1.363-3.729,3.043-3.729h59.348c1.681,0,3.044,1.67,3.044,3.729L96.717,78.097L96.717,78.097z"/>
		<path style="fill:#F0F1F3;" d="M84.588,47.058c0,0.712-1.262,1.29-2.82,1.29H46.992c-1.557,0-2.82-0.578-2.82-1.29V29.855
			c0-0.712,1.262-1.29,2.82-1.29h34.776c1.557,0,2.82,0.578,2.82,1.29C84.588,29.855,84.588,47.058,84.588,47.058z"/>
		<path style="fill:#5E5862;" d="M31.283,44.543c0-1.681,1.363-3.043,3.043-3.043h59.348c1.681,0,3.044,1.363,3.044,3.043v12.935
			H31.283V44.543z"/>
		<rect x="31.283" y="57.196" style="fill:#796A6F;" width="65.435" height="3.804"/>
		<circle style="fill:#E6CD11;" cx="38.891" cy="49.87" r="2.283"/>
		<circle style="fill:#FF4D66;" cx="44.978" cy="49.87" r="1.522"/>
		<circle style="fill:#60B272;" cx="50.304" cy="49.87" r="1.522"/>
		<rect x="43.772" y="68.131" style="fill:#3E3145;" width="42.739" height="13.696"/>
		<path style="fill:#F0F1F3;" d="M85.468,92.412c0,0.877-1.27,1.588-2.836,1.588H47.651c-1.567,0-2.836-0.711-2.836-1.588V71.24
			c0-0.877,1.27-1.588,2.836-1.588h34.982c1.566,0,2.836,0.711,2.836,1.588L85.468,92.412L85.468,92.412z"/>
		<rect x="49.612" y="74" style="fill:#B9B9BA;" width="29" height="2"/>
		<rect x="49.612" y="79" style="fill:#B9B9BA;" width="13" height="2"/>
		<rect x="49.612" y="84" style="fill:#B9B9BA;" width="29" height="2"/>
		<rect x="49.612" y="89" style="fill:#B9B9BA;" width="13" height="2"/>
	</g>
</g>
<g>
</g>
<g>
</g>
<g>
</g>
<g>
</g>
<g>
</g>
<g>
</g>
<g>
</g>
<g>
</g>
<g>
</g>
<g>
</g>
<g>
</g>
<g>
</g>
<g>
</g>
<g>
</g>
<g>
</g>
</svg>
