<?xml version="1.0" encoding="iso-8859-1"?>
<!-- Generator: Adobe Illustrator 19.0.0, SVG Export Plug-In . SVG Version: 6.00 Build 0)  -->
<svg version="1.1" id="Layer_1" xmlns="http://www.w3.org/2000/svg" xmlns:xlink="http://www.w3.org/1999/xlink" x="0px" y="0px"
	 viewBox="0 0 128.5 128.5" style="enable-background:new 0 0 128.5 128.5;" xml:space="preserve">
<g id="_x31_1_2_">
	<g>
		<circle style="fill:#EF8D6F;" cx="64.25" cy="64.25" r="64.25"/>
	</g>
	<circle style="fill:#EDE65D;" cx="21.714" cy="80.81" r="4.048"/>
	<circle style="fill:#EDE65D;" cx="36.286" cy="76.762" r="4.048"/>
	<path style="fill:#EDE65D;" d="M24.5,82.5c-0.828,0-1.5-0.672-1.5-1.5V64.619c0-0.611,0.371-1.161,0.937-1.391
		c0.96-0.389,3.991-1.82,6.922-3.204c3.105-1.467,6.038-2.851,7.078-3.272c0.46-0.187,0.987-0.132,1.401,0.146
		C39.752,57.178,40,57.644,40,58.143V77c0,0.828-0.672,1.5-1.5,1.5S37,77.828,37,77V60.456c-1.355,0.626-3.125,1.462-4.859,2.281
		c-2.426,1.146-4.745,2.241-6.141,2.866V81C26,81.828,25.328,82.5,24.5,82.5z"/>
	<circle style="fill:#EDE65D;" cx="40.292" cy="47.042" r="3.958"/>
	<path style="fill:#EDE65D;" d="M42.5,48.5c-0.828,0-1.5-0.672-1.5-1.5V31.208c0-0.681,0.459-1.276,1.117-1.45
		c2.59-0.684,3.601-1.021,5.435-1.637l0.807-0.269c0.785-0.263,1.637,0.163,1.897,0.948c0.262,0.786-0.162,1.636-0.948,1.897
		l-0.803,0.268c-1.555,0.522-2.586,0.867-4.505,1.393V47C44,47.828,43.328,48.5,42.5,48.5z"/>
	<g>
		<circle style="fill:#DDD354;" cx="87.309" cy="67.103" r="5.785"/>
		<path style="fill:#EDE65D;" d="M92.713,67.002h10.425c0.586,0,1.113-0.358,1.329-0.903s0.079-1.166-0.347-1.568l0,0
			c-1.57-1.483-5.224-5.787-5.224-13.713v-4.306c0-4.752-2.949-8.826-7.112-10.495c0.704-0.902,1.125-2.034,1.125-3.264
			c0-2.932-2.385-5.317-5.317-5.317c-2.931,0-5.316,2.385-5.316,5.317c0,1.23,0.421,2.363,1.125,3.265
			c-4.163,1.668-7.112,5.742-7.112,10.494v4.306c0,7.924-3.654,12.229-5.225,13.713c-0.426,0.402-0.563,1.024-0.346,1.568
			c0.216,0.545,0.743,0.903,1.329,0.903h10.426"/>
		<circle style="fill:#DDD354;" cx="87.309" cy="32.394" r="5.785"/>
	</g>
	<g>
		<path style="fill:#AFAEAE;" d="M83,105.452c0,1.959-1.589,3.548-3.548,3.548H49.548c-1.959,0-3.548-1.589-3.548-3.548V43.548
			C46,41.589,47.588,40,49.548,40h29.904C81.411,40,83,41.589,83,43.548V105.452z"/>
		<path style="fill:#CFFDFF;" d="M80,96.027C80,97.669,78.669,99,77.027,99H51.973C50.331,99,49,97.669,49,96.027V48.973
			C49,47.331,50.331,46,51.973,46h25.055C78.669,46,80,47.331,80,48.973V96.027z"/>
		<path style="fill:#777777;" d="M69,44H59c-0.553,0-1-0.447-1-1s0.447-1,1-1h10c0.553,0,1,0.447,1,1S69.553,44,69,44z"/>
		<ellipse style="fill:#777777;" cx="64" cy="104" rx="6" ry="2"/>
		<circle style="fill:#68C1C1;" cx="64.5" cy="56.5" r="6.5"/>
		<path style="fill:#68C1C1;" d="M53,75L53,75c0-6.075,4.925-11,11-11h1c6.075,0,11,4.925,11,11l0,0"/>
		<path style="fill:#AFAEAE;" d="M76,81.5c0,1.381-1.119,2.5-2.5,2.5h-18c-1.381,0-2.5-1.119-2.5-2.5l0,0c0-1.381,1.119-2.5,2.5-2.5
			h18C74.881,79,76,80.119,76,81.5L76,81.5z"/>
	</g>
	<path style="fill:#B1C95D;" d="M62,91.5c0,1.933-1.567,3.5-3.5,3.5l0,0c-1.933,0-3.5-1.567-3.5-3.5l0,0c0-1.933,1.567-3.5,3.5-3.5
		l0,0C60.433,88,62,89.567,62,91.5L62,91.5z"/>
	<path style="fill:#EF8D6F;" d="M74,91.5c0,1.933-1.567,3.5-3.5,3.5l0,0c-1.933,0-3.5-1.567-3.5-3.5l0,0c0-1.933,1.567-3.5,3.5-3.5
		l0,0C72.433,88,74,89.567,74,91.5L74,91.5z"/>
</g>
<g>
</g>
<g>
</g>
<g>
</g>
<g>
</g>
<g>
</g>
<g>
</g>
<g>
</g>
<g>
</g>
<g>
</g>
<g>
</g>
<g>
</g>
<g>
</g>
<g>
</g>
<g>
</g>
<g>
</g>
</svg>
