<?xml version="1.0" encoding="iso-8859-1"?>
<!-- Generator: Adobe Illustrator 19.0.0, SVG Export Plug-In . SVG Version: 6.00 Build 0)  -->
<svg version="1.1" id="Layer_1" xmlns="http://www.w3.org/2000/svg" xmlns:xlink="http://www.w3.org/1999/xlink" x="0px" y="0px"
	 viewBox="0 0 128.5 128.5" style="enable-background:new 0 0 128.5 128.5;" xml:space="preserve">
<g id="_x36_">
	<g>
		<circle style="fill:#EF8D6F;" cx="64.25" cy="64.25" r="64.25"/>
	</g>
	<g>
		<polygon style="fill:#8CCED1;" points="21,92.667 21,97.667 25,97.667 31,92.667 		"/>
		<polygon style="fill:#8CCED1;" points="108,92.667 108,97.667 104,97.667 98,92.667 		"/>
		<polygon style="fill:#97D6DD;" points="109,93.667 64.213,93.667 20,93.667 20,35.667 64.213,35.667 109,35.667 		"/>
		<polyline style="fill:#ABE4EE;" points="64,93.667 20,93.667 20,35.667 64,35.667 		"/>
		<rect x="30" y="42.667" style="fill:#CFFDFF;" width="69" height="44"/>
		<circle style="fill:#8CCED1;" cx="46.7" cy="65.287" r="9.069"/>
		<path style="fill:#97D6DD;" d="M48,77.371c0,0.716-0.58,1.296-1.296,1.296h-0.408c-0.716,0-1.296-0.58-1.296-1.296V52.963
			c0-0.716,0.58-1.296,1.296-1.296h0.408c0.716,0,1.296,0.58,1.296,1.296V77.371z"/>
		<path style="fill:#97D6DD;" d="M60,65.371c0,0.716-0.58,1.296-1.296,1.296H34.296c-0.716,0-1.296-0.58-1.296-1.296v-0.408
			c0-0.716,0.58-1.296,1.296-1.296h24.408c0.716,0,1.296,0.58,1.296,1.296C60,64.963,60,65.371,60,65.371z"/>
		<circle style="fill:#CFFDFF;" cx="46.7" cy="65.287" r="5.088"/>
		<path style="fill:#8CCED1;" d="M93,67.667H73c-1.105,0-2-0.896-2-2s0.895-2,2-2h20c1.104,0,2,0.896,2,2S94.104,67.667,93,67.667z"
			/>
		<circle style="fill:#8CCED1;" cx="71.964" cy="66.287" r="5.05"/>
		<circle style="fill:#CFFDFF;" cx="71.965" cy="66.287" r="2.791"/>
	</g>
</g>
<g>
</g>
<g>
</g>
<g>
</g>
<g>
</g>
<g>
</g>
<g>
</g>
<g>
</g>
<g>
</g>
<g>
</g>
<g>
</g>
<g>
</g>
<g>
</g>
<g>
</g>
<g>
</g>
<g>
</g>
</svg>
