<?xml version="1.0" encoding="iso-8859-1"?>
<!-- Generator: Adobe Illustrator 19.0.0, SVG Export Plug-In . SVG Version: 6.00 Build 0)  -->
<svg version="1.1" id="Layer_1" xmlns="http://www.w3.org/2000/svg" xmlns:xlink="http://www.w3.org/1999/xlink" x="0px" y="0px"
	 viewBox="0 0 128 128" style="enable-background:new 0 0 128 128;" xml:space="preserve">
<g>
	<circle style="fill:#FF8E6E;" cx="64" cy="64" r="64"/>
	<g>
		
			<rect x="35.387" y="35.667" transform="matrix(-0.9434 0.3316 -0.3316 -0.9434 132.9077 70.8072)" style="fill:#1D6038;" width="50.051" height="22.152"/>
		
			<rect x="42.156" y="38.089" transform="matrix(-0.9434 0.3316 -0.3316 -0.9434 150.2496 72.6927)" style="fill:#24AD61;" width="53.534" height="22.152"/>
		<path style="fill:#F29B1A;" d="M29.233,99.936H98.65c1.679,0,2.578-1.307,2.578-2.797V46.614c0-1.49-0.899-2.058-2.578-2.058
			H29.233V99.936z"/>
		<g>
			<path style="fill:#ECF082;" d="M37.813,98h-3.5c-0.828,0-1.5-1.005-1.5-1.833V93h3v2h2V98z"/>
			<path style="fill:#ECF082;" d="M94.195,98h-6.382v-3h6.382c0.087,0,0.164-0.173,0.229-0.188l0.652,3.011
				C94.798,97.885,94.501,98,94.195,98z M80.813,98h-7v-3h7V98z M65.813,98h-7v-3h7V98z M51.813,98h-7v-3h7V98z M97.813,90h-3v-7h3
				V90z M97.813,76h-3v-7h3V76z M97.813,62h-3v-8h3V62z M94.288,49.835L94.195,50h-7.382v-3.333l7.357,0.085L94.288,49.835z
				 M79.813,50h-7v-3h7V50z M65.813,50h-7v-3h7V50z M51.813,50h-7v-3h7V50z"/>
			<path style="fill:#ECF082;" d="M35.813,52h-3v-3.833c0-0.828,0.672-1.167,1.5-1.167h3.5v3h-2V52z"/>
			<path style="fill:#ECF082;" d="M35.813,84h-3v-8h3V84z M35.813,68h-3v-8h3V68z"/>
		</g>
		<path style="fill:#F0C31D;" d="M106.767,70.861c0,3.823-3.099,6.923-6.923,6.923H78.615c-3.823,0-6.923-3.099-6.923-6.923l0,0
			c0-3.823,3.099-6.923,6.923-6.923h21.229C103.667,63.939,106.767,67.038,106.767,70.861L106.767,70.861z"/>
		<circle style="fill:#F4EDDA;" cx="79.538" cy="70.861" r="3.231"/>
	</g>
</g>
<g>
</g>
<g>
</g>
<g>
</g>
<g>
</g>
<g>
</g>
<g>
</g>
<g>
</g>
<g>
</g>
<g>
</g>
<g>
</g>
<g>
</g>
<g>
</g>
<g>
</g>
<g>
</g>
<g>
</g>
</svg>
